<?xml version="1.0" standalone="no"?><!DOCTYPE svg PUBLIC "-//W3C//DTD SVG 1.1//EN" "http://www.w3.org/Graphics/SVG/1.1/DTD/svg11.dtd"><svg t="1684670100718" class="icon" viewBox="0 0 1024 1024" version="1.1" xmlns="http://www.w3.org/2000/svg" p-id="1826" xmlns:xlink="http://www.w3.org/1999/xlink" width="200" height="200"><path d="M841.22624 906.88512H234.75712a15.07328 15.07328 0 0 1-15.0784-15.07328v-73.45664a15.07328 15.07328 0 0 1 15.0784-15.07328h606.46912a15.06816 15.06816 0 0 1 15.07328 15.07328v73.45664a15.06816 15.06816 0 0 1-15.07328 15.07328z m-591.39584-30.1568h576.31744v-43.29984H249.8304v43.29984z" fill="#2E0C08" p-id="1827"></path><path d="M554.03008 170.3168c-98.36544 0-178.688 77.30176-183.53152 174.47936l-0.23552-0.01024v409.7792h367.54944V354.09408c0-101.49888-82.28352-183.77728-183.7824-183.77728z" fill="#A5A5A5" p-id="1828"></path><path d="M774.3744 833.33632H281.04192a15.0784 15.0784 0 0 1-15.07328-15.0784v-59.7504a15.07328 15.07328 0 0 1 15.07328-15.06816h493.33248a15.07328 15.07328 0 0 1 15.0784 15.06816v59.7504a15.08352 15.08352 0 0 1-15.0784 15.0784z m-478.2592-30.1568H759.296v-29.59872H296.1152v29.59872z" fill="#2E0C08" p-id="1829"></path><path d="M709.15584 773.57568H330.85952a15.06816 15.06816 0 0 1-15.07328-15.07328V336.75264c0-1.19808 0.14336-2.37568 0.41984-3.52256 6.79424-107.40224 95.77984-191.12448 203.8016-191.12448 112.6144 0 204.22144 91.61216 204.22144 204.22144v412.17024a15.08352 15.08352 0 0 1-15.07328 15.0784zM345.9328 743.424h348.13952V346.33216c0-95.98464-78.09024-174.07488-174.06976-174.07488-92.86656 0-169.23136 72.59136-173.84448 165.25312a14.99648 14.99648 0 0 1-0.22016 1.94048V743.424z" fill="#2E0C08" p-id="1830"></path><path d="M753.87392 286.54592a15.0784 15.0784 0 0 1-14.44864-10.79296 173.7472 173.7472 0 0 0-16.27648-37.71392 173.81376 173.81376 0 0 0-76.4928-70.26176 15.08352 15.08352 0 0 1 12.86144-27.27424 203.8272 203.8272 0 0 1 89.71264 82.39616 203.59168 203.59168 0 0 1 19.0976 44.27776 15.07328 15.07328 0 0 1-14.45376 19.36896zM761.6512 659.072a15.06816 15.06816 0 0 1-15.06816-15.07328V325.31456a15.07328 15.07328 0 1 1 30.14656 0v318.68416a15.07328 15.07328 0 0 1-15.0784 15.07328zM594.87744 368.16896H432a15.0784 15.0784 0 1 1 0-30.14656h162.87744a15.06304 15.06304 0 0 1 15.06816 15.07328 15.06816 15.06816 0 0 1-15.06816 15.07328z" fill="#2E0C08" p-id="1831"></path><path d="M513.43872 460.11392a15.0784 15.0784 0 0 1-15.08352-15.07328V282.1632a15.0784 15.0784 0 0 1 30.14656 0v162.88256a15.06304 15.06304 0 0 1-15.06304 15.06816z" fill="#2E0C08" p-id="1832"></path></svg>